<svg xmlns="http://www.w3.org/2000/svg" width="14" height="14" viewBox="0 0 14 14">
    <g fill="none" fill-rule="evenodd">
        <path d="M-8-7.652h30v30H-8z"/>
        <path fill="#CCC" d="M13.364 2.398a1 1 0 0 1 0 1.414L9.828 7.348l3.536 3.535a1 1 0 0 1 0 1.414l-1.414 1.415a1 1 0 0 1-1.414 0L7 10.176l-3.536 3.536a1 1 0 0 1-1.414 0L.636 12.297a1 1 0 0 1 0-1.414l3.536-3.535L.636 3.812a1 1 0 0 1 0-1.414L2.05.984a1 1 0 0 1 1.414 0L7 4.519 10.536.984a1 1 0 0 1 1.414 0l1.414 1.414z"/>
    </g>
</svg>
